<svg width="32" height="32" viewBox="0 0 32 32" fill="none" xmlns="http://www.w3.org/2000/svg">
  <circle cx="16" cy="16" r="16" fill="#AB9FF2"/>
  <path d="M23 12.5C23 11.6716 22.3284 11 21.5 11H10.5C9.67157 11 9 11.6716 9 12.5V19.5C9 20.3284 9.67157 21 10.5 21H21.5C22.3284 21 23 20.3284 23 19.5V12.5Z" fill="white"/>
  <path d="M21.5 11.5H10.5C9.94772 11.5 9.5 11.9477 9.5 12.5V19.5C9.5 20.0523 9.94772 20.5 10.5 20.5H21.5C22.0523 20.5 22.5 20.0523 22.5 19.5V12.5C22.5 11.9477 22.0523 11.5 21.5 11.5Z" stroke="#535AFC" stroke-opacity="0.5"/>
  <path d="M14 15H18V17H14V15Z" fill="#535AFC"/>
</svg>